<?xml version="1.0" encoding="UTF-8" standalone="no"?>
<!-- Created with Inkscape (http://www.inkscape.org/) -->

<svg
   width="45"
   height="45"
   viewBox="0 0 11.90625 11.90625"
   version="1.1"
   id="svg4393"
   sodipodi:docname="bB.svg"
   inkscape:version="1.2.2 (b0a8486541, 2022-12-01)"
   inkscape:export-filename="bB.png"
   inkscape:export-xdpi="170.66667"
   inkscape:export-ydpi="170.66667"
   xmlns:inkscape="http://www.inkscape.org/namespaces/inkscape"
   xmlns:sodipodi="http://sodipodi.sourceforge.net/DTD/sodipodi-0.dtd"
   xmlns="http://www.w3.org/2000/svg"
   xmlns:svg="http://www.w3.org/2000/svg"
   xmlns:rdf="http://www.w3.org/1999/02/22-rdf-syntax-ns#"
   xmlns:cc="http://creativecommons.org/ns#"
   xmlns:dc="http://purl.org/dc/elements/1.1/">
  <defs
     id="defs4387" />
  <sodipodi:namedview
     id="base"
     pagecolor="#ffffff"
     bordercolor="#666666"
     borderopacity="1.0"
     inkscape:pageopacity="0.0"
     inkscape:pageshadow="2"
     inkscape:zoom="3"
     inkscape:cx="30.333333"
     inkscape:cy="21.666667"
     inkscape:document-units="mm"
     inkscape:current-layer="layer1"
     showgrid="false"
     units="px"
     inkscape:window-width="3840"
     inkscape:window-height="2079"
     inkscape:window-x="0"
     inkscape:window-y="52"
     inkscape:window-maximized="1"
     inkscape:showpageshadow="2"
     inkscape:pagecheckerboard="0"
     inkscape:deskcolor="#d1d1d1" />
  <metadata
     id="metadata4390">
    <rdf:RDF>
      <cc:Work
         rdf:about="">
        <dc:format>image/svg+xml</dc:format>
        <dc:type
           rdf:resource="http://purl.org/dc/dcmitype/StillImage" />
        <dc:title />
      </cc:Work>
    </rdf:RDF>
  </metadata>
  <g
     inkscape:label="Layer 1"
     inkscape:groupmode="layer"
     id="layer1"
     transform="translate(0,-285.09373)">
    <g
       id="g4572"
       transform="matrix(0.28921369,0,0,0.28921369,-0.54713251,283.72613)">
      <circle
         id="circle4537"
         r="2.5"
         cy="13.5"
         cx="22.5"
         style="fill:#000000;stroke:#000000;stroke-width:1.5;stroke-linejoin:round" />
      <circle
         id="circle4539"
         r="1.5"
         cy="13.5"
         cx="22.5"
         style="fill:none;stroke:#ffffff;stroke-width:1.5;stroke-linejoin:round" />
      <g
         id="g4543"
         style="fill:#000000;stroke:#000000;stroke-width:1.5;stroke-linejoin:round">
        <!-- test -->
        <path
           id="path4541"
           d="m 11.5,37 c 5.5,3.5 15.5,3.5 21,0 v -7 c 0,0 9,-4.5 6,-11 -5.5,-7 -26.5,-7 -32,0 -3,6.5 5,10.5 5,10.5 z"
           inkscape:connector-curvature="0" />
      </g>
      <g
         id="g4553"
         style="fill:none;stroke:#ffffff;stroke-width:1.5;stroke-linecap:round;stroke-linejoin:round">
        <!-- test -->
        <path
           id="path4545"
           d="m 32,29.5 c 0,0 8.5,-4 6,-9.65 C 32.65,13 12.35,13 7,19.85 c -2.5,5.65 4.85,9 4.85,9"
           inkscape:connector-curvature="0" />
        <!-- talp -->
        <path
           id="path4547"
           d="M 11.5,30 C 17,27 27,27 32.5,30"
           inkscape:connector-curvature="0" />
        <path
           id="path4549"
           d="m 11.5,33.5 c 5.5,-3 15.5,-3 21,0"
           inkscape:connector-curvature="0" />
        <path
           id="path4551"
           d="M 11.5,37 C 17,34 27,34 32.5,37"
           inkscape:connector-curvature="0" />
      </g>
    </g>
  </g>
</svg>
